<?xml version="1.0" encoding="UTF-8" standalone="no"?> 
<!DOCTYPE svg PUBLIC "-//W3C//Dtd SVG 1.1//EN" "http://www.w3.org/Graphics/SVG/1.1/Dtd/svg11.dtd">
<svg width="820.0" height="365.0" version="1.1" xmlns="http://www.w3.org/2000/svg" xmlns:xlink="http://www.w3.org/1999/xlink">
<!-- Created by FidoCadJ ver. 0.24.6, export filter by Davide Bucci -->
<line x1="310.0" y1="40.0" x2="310.0" y2="65.0" style="stroke:#000000;stroke-width:2.5;fill-rule: evenodd;" fill="none"/>
<line x1="295.0" y1="65.0" x2="325.0" y2="65.0" style="stroke:#000000;stroke-width:2.5;fill-rule: evenodd;" fill="none"/>
<line x1="300.0" y1="70.0" x2="320.0" y2="70.0" style="stroke:#000000;stroke-width:2.5;fill-rule: evenodd;" fill="none"/>
<line x1="305.0" y1="75.0" x2="315.0" y2="75.0" style="stroke:#000000;stroke-width:2.5;fill-rule: evenodd;" fill="none"/>
<line x1="460.0" y1="215.0" x2="460.0" y2="240.0" style="stroke:#000000;stroke-width:2.5;fill-rule: evenodd;" fill="none"/>
<line x1="445.0" y1="240.0" x2="475.0" y2="240.0" style="stroke:#000000;stroke-width:2.5;fill-rule: evenodd;" fill="none"/>
<line x1="450.0" y1="245.0" x2="470.0" y2="245.0" style="stroke:#000000;stroke-width:2.5;fill-rule: evenodd;" fill="none"/>
<line x1="455.0" y1="250.0" x2="465.0" y2="250.0" style="stroke:#000000;stroke-width:2.5;fill-rule: evenodd;" fill="none"/>
<polygon points="470.0,165.0 450.0,165.0 460.0,185.0 " style="stroke:#000000;stroke-width:2.5;fill-rule: evenodd;" fill="#000000"/>
<line x1="460.0" y1="215.0" x2="460.0" y2="140.0" style="stroke:#000000;stroke-width:2.5;fill-rule: evenodd;" fill="none"/>
<ellipse cx="460.0" cy="175.0" rx="20.0" ry="20.0" style="stroke:#000000;stroke-width:2.5;fill-rule: evenodd;" fill="none"/>
<line x1="470.0" y1="185.0" x2="450.0" y2="185.0" style="stroke:#000000;stroke-width:2.5;fill-rule: evenodd;" fill="none"/>
<line x1="485.0" y1="180.0" x2="510.0" y2="205.0" style="stroke:#000000;stroke-width:2.5;fill-rule: evenodd;" fill="none"/>
<polygon points="510.0,205.0 500.0,200.0 505.0,195.0 " style="stroke:#000000;stroke-width:2.5;fill-rule: evenodd;" fill="#000000"/>
<line x1="480.0" y1="190.0" x2="505.0" y2="215.0" style="stroke:#000000;stroke-width:2.5;fill-rule: evenodd;" fill="none"/>
<polygon points="505.0,215.0 495.0,210.0 500.0,205.0 " style="stroke:#000000;stroke-width:2.5;fill-rule: evenodd;" fill="#000000"/>
<line x1="310.0" y1="190.0" x2="310.0" y2="170.0" style="stroke:#000000;stroke-width:2.5;fill-rule: evenodd;" fill="none"/>
<line x1="320.0" y1="160.0" x2="300.0" y2="160.0" style="stroke:#000000;stroke-width:2.5;fill-rule: evenodd;" fill="none"/>
<line x1="310.0" y1="160.0" x2="310.0" y2="140.0" style="stroke:#000000;stroke-width:2.5;fill-rule: evenodd;" fill="none"/>
<line x1="300.0" y1="185.0" x2="300.0" y2="175.0" style="stroke:#000000;stroke-width:2.5;fill-rule: evenodd;" fill="none"/>
<line x1="305.0" y1="180.0" x2="295.0" y2="180.0" style="stroke:#000000;stroke-width:2.5;fill-rule: evenodd;" fill="none"/>
<rect x="300.0" y="165.0" rx="0" ry="0" width="20.0" height="5.0" style="stroke:#000000;stroke-width:2.5;fill-rule: evenodd;" fill="none"/>
<g transform="translate(360.0,215.0) scale(0.9965034965034963,1) "><text x="0" y="26.0" font-family="Courier New" font-size="26.0" font-style="" font-weigth="" fill="#000000">220μF</text>
</g>
<line x1="460.0" y1="140.0" x2="460.0" y2="130.0" style="stroke:#000000;stroke-width:2.5;fill-rule: evenodd;" fill="none"/>
<line x1="460.0" y1="100.0" x2="460.0" y2="90.0" style="stroke:#000000;stroke-width:2.5;fill-rule: evenodd;" fill="none"/>
<rect x="455.0" y="100.0" rx="0" ry="0" width="10.0" height="30.0" style="stroke:#000000;stroke-width:2.5;fill-rule: evenodd;" fill="none"/>
<line x1="475.0" y1="100.0" x2="445.0" y2="130.0" style="stroke:#000000;stroke-width:2.5;fill-rule: evenodd;" fill="none"/>
<polygon points="470.0,100.0 475.0,105.0 480.0,95.0 " style="stroke:#000000;stroke-width:2.5;fill-rule: evenodd;" fill="#000000"/>
<rect x="85.0" y="15.0" rx="0" ry="0" width="125.0" height="225.0" style="stroke:#000000;stroke-width:2.5;fill-rule: evenodd;" fill="none"/>
<circle cx="210.0" cy="40.0" r="5.0" style="stroke:#000000;stroke-width:0.33" fill="#000000"/>
<circle cx="210.0" cy="90.0" r="5.0" style="stroke:#000000;stroke-width:0.33" fill="#000000"/>
<circle cx="210.0" cy="140.0" r="5.0" style="stroke:#000000;stroke-width:0.33" fill="#000000"/>
<circle cx="210.0" cy="190.0" r="5.0" style="stroke:#000000;stroke-width:0.33" fill="#000000"/>
<g transform="translate(210.0,40.0) scale(1.2954545454545454,1) "><text x="0" y="20.0" font-family="Courier New" font-size="20.0" font-style="" font-weigth="" fill="#000000">com</text>
</g>
<g transform="translate(210.0,190.0) scale(1.2954545454545454,1) "><text x="0" y="20.0" font-family="Courier New" font-size="20.0" font-style="" font-weigth="" fill="#000000">+</text>
</g>
<g transform="translate(210.0,140.0) scale(1.2954545454545454,1) "><text x="0" y="20.0" font-family="Courier New" font-size="20.0" font-style="" font-weigth="" fill="#000000">-</text>
</g>
<g transform="translate(210.0,90.0) scale(1.2954545454545454,1) "><text x="0" y="20.0" font-family="Courier New" font-size="20.0" font-style="" font-weigth="" fill="#000000">sig</text>
</g>
<g transform="translate(160.0,40.0) rotate(-270.0)  scale(1.2954545454545454,1) "><text x="0" y="20.0" font-family="Courier New" font-size="20.0" font-style="" font-weigth="" fill="#000000">Hideki 203HB</text>
</g>
<line x1="310.0" y1="140.0" x2="210.0" y2="140.0" style="stroke:#000000;stroke-width:2.5;fill-rule: evenodd;" fill="none"/>
<line x1="310.0" y1="190.0" x2="210.0" y2="190.0" style="stroke:#000000;stroke-width:2.5;fill-rule: evenodd;" fill="none"/>
<line x1="460.0" y1="90.0" x2="210.0" y2="90.0" style="stroke:#000000;stroke-width:2.5;fill-rule: evenodd;" fill="none"/>
<line x1="610.0" y1="90.0" x2="460.0" y2="90.0" style="stroke:#000000;stroke-width:2.5;fill-rule: evenodd;" fill="none"/>
<path d="M 35.0,100.0 C 20.0,100.0 20.0,120.0 35.0,120.0" style="stroke:#000000;stroke-width:2.5;fill-rule: evenodd;" fill="none"/>
<path d="M 35.0,120.0 C 20.0,120.0 20.0,140.0 35.0,140.0" style="stroke:#000000;stroke-width:2.5;fill-rule: evenodd;" fill="none"/>
<path d="M 35.0,140.0 C 20.0,140.0 20.0,160.0 35.0,160.0" style="stroke:#000000;stroke-width:2.5;fill-rule: evenodd;" fill="none"/>
<path d="M 35.0,160.0 C 20.0,160.0 20.0,180.0 35.0,180.0" style="stroke:#000000;stroke-width:2.5;fill-rule: evenodd;" fill="none"/>
<line x1="35.0" y1="90.0" x2="35.0" y2="100.0" style="stroke:#000000;stroke-width:2.5;fill-rule: evenodd;" fill="none"/>
<line x1="35.0" y1="180.0" x2="35.0" y2="190.0" style="stroke:#000000;stroke-width:2.5;fill-rule: evenodd;" fill="none"/>
<line x1="20.0" y1="100.0" x2="20.0" y2="180.0" style="stroke:#000000;stroke-width:2.5;fill-rule: evenodd;" fill="none"/>
<line x1="15.0" y1="100.0" x2="15.0" y2="180.0" style="stroke:#000000;stroke-width:2.5;fill-rule: evenodd;" fill="none"/>
<circle cx="85.0" cy="90.0" r="5.0" style="stroke:#000000;stroke-width:0.33" fill="#000000"/>
<circle cx="85.0" cy="190.0" r="5.0" style="stroke:#000000;stroke-width:0.33" fill="#000000"/>
<line x1="35.0" y1="90.0" x2="85.0" y2="90.0" style="stroke:#000000;stroke-width:2.5;fill-rule: evenodd;" fill="none"/>
<line x1="85.0" y1="190.0" x2="35.0" y2="190.0" style="stroke:#000000;stroke-width:2.5;fill-rule: evenodd;" fill="none"/>
<line x1="310.0" y1="40.0" x2="210.0" y2="40.0" style="stroke:#000000;stroke-width:2.5;fill-rule: evenodd;" fill="none"/>
<g transform="translate(610.0,90.0) scale(1.2954545454545454,1) "><text x="0" y="20.0" font-family="Courier New" font-size="20.0" font-style="" font-weigth="" fill="#000000">RPi GPIO 3.3V</text>
</g>
<line x1="360.0" y1="140.0" x2="360.0" y2="165.0" style="stroke:#000000;stroke-width:2.5;fill-rule: evenodd;" fill="none"/>
<line x1="345.0" y1="165.0" x2="375.0" y2="165.0" style="stroke:#000000;stroke-width:2.5;fill-rule: evenodd;" fill="none"/>
<line x1="350.0" y1="170.0" x2="370.0" y2="170.0" style="stroke:#000000;stroke-width:2.5;fill-rule: evenodd;" fill="none"/>
<line x1="355.0" y1="175.0" x2="365.0" y2="175.0" style="stroke:#000000;stroke-width:2.5;fill-rule: evenodd;" fill="none"/>
<line x1="310.0" y1="140.0" x2="360.0" y2="140.0" style="stroke:#000000;stroke-width:2.5;fill-rule: evenodd;" fill="none"/>
<line x1="260.0" y1="140.0" x2="260.0" y2="160.0" style="stroke:#000000;stroke-width:2.5;fill-rule: evenodd;" fill="none"/>
<line x1="260.0" y1="170.0" x2="260.0" y2="190.0" style="stroke:#000000;stroke-width:2.5;fill-rule: evenodd;" fill="none"/>
<line x1="270.0" y1="160.0" x2="250.0" y2="160.0" style="stroke:#000000;stroke-width:2.5;fill-rule: evenodd;" fill="none"/>
<line x1="270.0" y1="170.0" x2="250.0" y2="170.0" style="stroke:#000000;stroke-width:2.5;fill-rule: evenodd;" fill="none"/>
<g transform="translate(210.0,215.0) scale(0.9965034965034963,1) "><text x="0" y="26.0" font-family="Courier New" font-size="26.0" font-style="" font-weigth="" fill="#000000">10nF</text>
</g>
<line x1="310.0" y1="265.0" x2="310.0" y2="275.0" style="stroke:#000000;stroke-width:2.5;fill-rule: evenodd;" fill="none"/>
<ellipse cx="310.0" cy="285.0" rx="10.0" ry="10.0" style="stroke:#000000;stroke-width:2.5;fill-rule: evenodd;" fill="none"/>
<line x1="310.0" y1="280.0" x2="310.0" y2="290.0" style="stroke:#000000;stroke-width:2.5;fill-rule: evenodd;" fill="none"/>
<line x1="315.0" y1="285.0" x2="305.0" y2="285.0" style="stroke:#000000;stroke-width:2.5;fill-rule: evenodd;" fill="none"/>
<g transform="translate(360.0,315.0) scale(0.9965034965034963,1) "><text x="0" y="26.0" font-family="Courier New" font-size="26.0" font-style="" font-weigth="" fill="#000000">3.3V</text>
</g>
<line x1="310.0" y1="265.0" x2="310.0" y2="190.0" style="stroke:#000000;stroke-width:2.5;fill-rule: evenodd;" fill="none"/>
</svg>